<?xml version="1.0" encoding="UTF-8"?>
<svg width="20px" height="20px" viewBox="0 0 20 20" version="1.1" xmlns="http://www.w3.org/2000/svg" xmlns:xlink="http://www.w3.org/1999/xlink">
    <!-- Generator: Sketch 43.1 (39012) - http://www.bohemiancoding.com/sketch -->
    <title>like</title>
    <desc>Created with Sketch.</desc>
    <defs></defs>
    <g id="Page-1" stroke="none" stroke-width="1" fill="none" fill-rule="evenodd">
        <g id="like" fill-rule="nonzero">
            <circle id="Oval" fill="#C75C5C" cx="10" cy="10" r="10"></circle>
            <g id="Group" opacity="0.2" transform="translate(4.375000, 6.250000)" fill="#231F20">
                <g id="Shape">
                    <path d="M11.244375,3.4384375 C11.215,1.7128125 9.815,0.1753125 8.0859375,0.1753125 C7.0859375,0.1753125 6.205,0.6984375 5.625,1.46625 C5.045,0.6984375 4.16375,0.1753125 3.1640625,0.1753125 C1.435,0.1753125 0.0353125,1.713125 0.005625,3.4384375 L0,3.4384375 C0,3.4490625 0.0021875,3.45875 0.0021875,3.469375 C0.0021875,3.4771875 0,3.4846875 0,3.493125 C0,3.5415625 0.011875,3.578125 0.0140625,3.6246875 C0.16875,8.021875 5.580625,9.8246875 5.580625,9.8246875 C5.580625,9.8246875 11.071875,8.0240625 11.234375,3.6315625 C11.2371875,3.5825 11.25,3.54375 11.25,3.493125 C11.25,3.4846875 11.2478125,3.476875 11.2478125,3.469375 C11.2478125,3.458125 11.25,3.4490625 11.25,3.4384375 L11.244375,3.4384375 Z"></path>
                </g>
            </g>
            <path d="M15.619375,9.0634375 C15.59,7.3378125 14.19,5.8003125 12.4609375,5.8003125 C11.4609375,5.8003125 10.58,6.3234375 10,7.09125 C9.42,6.3234375 8.53875,5.8003125 7.5390625,5.8003125 C5.81,5.8003125 4.4103125,7.338125 4.380625,9.0634375 L4.375,9.0634375 C4.375,9.0740625 4.3771875,9.08375 4.3771875,9.094375 C4.3771875,9.1021875 4.375,9.1096875 4.375,9.118125 C4.375,9.1665625 4.386875,9.203125 4.3890625,9.2496875 C4.54375,13.646875 9.955625,15.4496875 9.955625,15.4496875 C9.955625,15.4496875 15.446875,13.6490625 15.609375,9.2565625 C15.6121875,9.2075 15.625,9.16875 15.625,9.118125 C15.625,9.1096875 15.6228125,9.101875 15.6228125,9.094375 C15.6228125,9.083125 15.625,9.0740625 15.625,9.0634375 L15.619375,9.0634375 Z" id="Shape" fill="#FFFFFF"></path>
        </g>
    </g>
</svg>